<?xml version="1.0" encoding="UTF-8"?>
<svg xmlns="http://www.w3.org/2000/svg" viewBox="0 0 1024 1024" width="1024" height="1024">
  <!-- Rounded-rectangle background -->
  <rect x="0" y="0" width="1024" height="1024" rx="180" ry="180" fill="#2C51A1"/>

  <!-- Gauge arc: center at (512,648), outer R=340, inner r=200 -->
  <g>
    <!-- Red segment: 180° to 227° -->
    <path d="M 172.0,648.0 A 340,340 0 0,1 280.1,399.3 L 375.6,501.7 A 200,200 0 0,0 312.0,648.0 Z" fill="#E44F39"/>

    <!-- Yellow segment: 227° to 311° -->
    <path d="M 280.1,399.3 A 340,340 0 0,1 735.1,391.4 L 643.2,497.1 A 200,200 0 0,0 375.6,501.7 Z" fill="#FBC917"/>

    <!-- Green segment: 311° to 364° -->
    <path d="M 735.1,391.4 A 340,340 0 0,1 851.2,671.7 L 711.5,662.0 A 200,200 0 0,0 643.2,497.1 Z" fill="#44AC4D"/>

    <!-- Teardrop needle: upper edge, hidden base through pivot, two-segment lower edge -->
    <path d="M 727,449
             C 680,470 535,575 470,635
             C 490,660 530,670 555,658
             C 570,650 620,580 647,549
             C 667,524 700,483 727,452
             Z" fill="white"/>

    <!-- Center pivot circle with inner ring -->
    <circle cx="512" cy="648" r="44" fill="white"/>
    <circle cx="512" cy="648" r="18" fill="#2C51A1"/>
  </g>
</svg>