<?xml version="1.0" encoding="UTF-8"?>
<svg xmlns="http://www.w3.org/2000/svg" viewBox="0 0 1024 1024" width="1024" height="1024">
  <!-- Rounded-rectangle background -->
  <rect x="0" y="0" width="1024" height="1024" rx="180" ry="180" fill="#2C51A1"/>

  <!-- Gauge arc: center at (512,640), outer R=340, inner r=200 -->
  <g>
    <!-- Red segment: 195° to 237° -->
    <path d="M 183.6,552.0 A 340,340 0 0,1 326.8,354.9 L 403.1,472.3 A 200,200 0 0,0 318.8,588.2 Z" fill="#E44F39"/>

    <!-- Yellow segment: 237° to 312° -->
    <path d="M 326.8,354.9 A 340,340 0 0,1 739.5,387.3 L 645.8,491.4 A 200,200 0 0,0 403.1,472.3 Z" fill="#FBC917"/>

    <!-- Green segment: 312° to 345° -->
    <path d="M 739.5,387.3 A 340,340 0 0,1 840.4,552.0 L 705.2,588.2 A 200,200 0 0,0 645.8,491.4 Z" fill="#44AC4D"/>

    <!-- Teardrop needle: upper edge bezier, hidden base, two-segment lower edge to tip -->
    <path d="M 725,447
             C 658,500 540,575 480,610
             L 530,650
             C 578,664 590,618 605,600
             C 645,551 685,503 725,454
             Q 728,450 725,447
             Z" fill="white"/>

    <!-- Center pivot circle with inner ring -->
    <circle cx="512" cy="640" r="48" fill="white"/>
    <circle cx="512" cy="640" r="14" fill="#2C51A1"/>
  </g>
</svg>